<?xml version="1.0" encoding="utf-8"?>
<!-- Generator: Adobe Illustrator 18.1.0, SVG Export Plug-In . SVG Version: 6.00 Build 0)  -->
<svg version="1.1" id="Layer_1" xmlns="http://www.w3.org/2000/svg" xmlns:xlink="http://www.w3.org/1999/xlink" x="0px" y="0px"
	 viewBox="3.7 108.8 794.9 552.3" enable-background="new 3.7 108.8 794.9 552.3" xml:space="preserve">
<path fill="#009BD6" d="M427.7,236.8l100.7-100.7v502.5h-45.7V222.9l-55,55V236.8z M534.9,648.3l57.3-57.3V119.9h-61.4L418,232.6
	V294h54.5v354.2H534.9L534.9,648.3z M183.9,539.8c-32.8,0-59.6-26.8-59.6-59.6v-194c0-30,27.2-57.3,59.6-57.3c32.8,0,60,27.2,60,60
	v194C242.1,514.3,216.2,539.8,183.9,539.8 M14.4,507.4V288c0-82.2,58.2-150.6,136.2-166.3c-54,23.1-91,76.7-91,139v247.1
	c0,53.1,43.9,97,97,97s97-43.9,97-97V288.5c0-38.3-31.4-69.7-69.7-69.7c-25.4,0-46.6,12.9-58.7,32.8c4.6-43.9,41.1-78.5,86.4-78.5
	c48.5,0,87.8,39.7,87.8,87.8v247.1c0,78.5-64.2,142.3-142.3,142.3C78.1,649.7,14.4,586.4,14.4,507.4 M156.6,659.4h27.2
	c99.3,0,179.2-79.9,179.2-179.2V260.8c0-84.1-67.4-152-151.5-152h-27.7C85,108.8,4.7,188.7,4.7,288v219.4
	C4.7,591.5,72.6,659.4,156.6,659.4"/>
</svg>
