<?xml version="1.0" encoding="utf-8"?>
<!-- Generator: Adobe Illustrator 18.1.0, SVG Export Plug-In . SVG Version: 6.00 Build 0)  -->
<svg version="1.1" id="Layer_1" xmlns="http://www.w3.org/2000/svg" xmlns:xlink="http://www.w3.org/1999/xlink" x="0px" y="0px"
	 viewBox="5.1 127.1 789.4 544.4" enable-background="new 5.1 127.1 789.4 544.4" xml:space="preserve">
<path fill="#009BD6" d="M501.6,309h41.5l-45.1,44.7h-40.5L501.6,309z M494.7,302.6L450,347.3v-42.4c0-82,58-148.8,130.3-163.5
	c-50.7,23-85.7,79.7-85.7,136.3L494.7,302.6L494.7,302.6z M510.8,597.3l45.1-45.1h222.5l-44.7,45.1H510.8z M450,526.9
	c0-115.6,94-141.4,148.8-156.6c52-14.7,86.6-27.6,86.6-76.9c0-35.9-28.6-56.6-62.2-56.6c-25.8,0-50.7,14.7-64,35.9
	c3.2-44.7,40.5-81.1,85.7-81.1c47.9,0,85.2,40.1,85.2,102.2c0,84.3-58,102.2-117,118.4c-59,17-118.4,34.5-118.4,115.6v79.7h236.7
	v44.7H450V526.9z M794.1,292.9c0-108.2-67.7-165.8-149.2-165.8h-27.2c-98.1,0-177.3,78.3-177.3,177.3v59h61.3l57.6-56.6
	c0-35.9,31.8-60.8,64-60.8c28.6,0,52.5,17,52.5,47.4c0,41.5-27.2,52.5-79.2,67.7c-58,17-156.1,43.8-156.1,166.3v134h297.5l56.6-56.6
	v-62.2H558.7v-15.7c0-29.9,8.3-35,69.5-52C691.4,457.3,794.1,429.7,794.1,292.9 M182.4,553.1c-32.2,0-59-26.3-59-59V302.6
	c0-29.9,27.2-56.6,59-56.6c32.2,0,59.4,27.2,59.4,59.4v192.1C240,528.3,214.2,553.1,182.4,553.1 M14.8,521.4V304.4
	c0-81.1,57.6-148.8,134.5-164.4c-53.4,23-89.8,76-89.8,137.2v244.1c0,52.5,43.3,95.8,95.8,95.8s95.8-43.3,95.8-95.8V304.9
	c0-37.8-31.3-69.1-69.1-69.1c-24.9,0-46.1,12.9-58,32.2c4.6-43.3,40.5-77.8,85.2-77.8c47.9,0,86.6,39.1,86.6,86.6v244.1
	c0,77.8-63.6,140.5-140.5,140.5C77.9,661.8,14.8,599.2,14.8,521.4 M155.3,671.5h27.2c98.1,0,177.3-79.2,177.3-177.3V277.3
	c0-83.4-66.8-150.1-150.1-150.1h-27.2C84.3,127.6,5.1,206.3,5.1,304.4v216.9C5.1,604.7,72.4,671.5,155.3,671.5"/>
</svg>
