<?xml version="1.0" encoding="utf-8"?>
<!-- Generator: Adobe Illustrator 18.1.0, SVG Export Plug-In . SVG Version: 6.00 Build 0)  -->
<svg version="1.1" id="Layer_1" xmlns="http://www.w3.org/2000/svg" xmlns:xlink="http://www.w3.org/1999/xlink" x="0px" y="0px"
	 viewBox="2.5 122.1 794.5 552.8" enable-background="new 2.5 122.1 794.5 552.8" xml:space="preserve">
<path fill="#009BD6" d="M499.7,306.9h41.8l-46,45.5h-41.4L499.7,306.9z M499.7,469.1h41.8l-46,48.7h-41.8L499.7,469.1z M492.8,274.7
	V300l-45.5,45.5v-43.2c0-82.3,58.4-151.2,136.5-166.8C530.5,159.4,492.8,212.2,492.8,274.7 M617.8,564.6c27.6,0,45.5-11,57.9-26.2
	c-6.9,41.4-42.7,72.1-85,72.1c-47.3,0-86.4-39.1-87.8-85.9l46-48.2v18.4C548.4,533.4,579.2,564.6,617.8,564.6 M741.4,515
	c0-72.1-50.1-120.9-112.6-120.9h-43.2l45.5-46c32.2-1.8,55.6-26.2,55.6-57.9c0-36.3-28.9-57.9-63.4-57.9
	c-26.2,0-51.5,15.2-65.2,36.3c3.2-46,41.4-82.3,87.3-82.3c48.7,0,86.4,42.7,86.4,95.6c0,31.7-10.1,60.7-31.7,83.2
	c51.5,26.7,87.3,80.4,87.3,141.5c0,84.5-61.1,144.3-139.2,155.8C703.7,637.2,741.4,579.8,741.4,515 M590.2,674.9h27.6
	c99.7,0,179.2-68.5,179.2-168.2c0-41.4-15.2-78.1-40-108c24.8-29.4,40-67.1,40-108.4c0-109.4-67.1-168.2-151.6-168.2h-27.6
	c-99.7,0-180.1,80.4-180.1,180.1V362h62l58.4-57.9c0-37.2,33.1-62,65.2-62c28.9,0,53.8,17,53.8,48.2c0,26.7-21.1,48.2-50.1,48.2
	l-57.9,58.4v62h59.7c26.7,0,48.2,21.1,48.2,48.2c0,24.8-23.4,48.2-59.3,48.2c-33.1,0-59.7-26.7-59.7-59.7v-35.8h-62.5l-57.9,60.7
	C437.7,609.2,505.7,674.9,590.2,674.9 M182.2,555c-33.1,0-59.7-26.7-59.7-59.7V300c0-30.3,27.6-57.9,59.7-57.9
	c33.1,0,60.7,27.6,60.7,60.7V498C240.5,529.3,214.8,555,182.2,555 M12.2,522.8V302.3c0-82.7,58.4-151.2,136.5-167.3
	c-54.2,23.4-91.4,77.2-91.4,139.7v248.1c0,53.8,44.1,97.4,97.4,97.4s97.4-44.1,97.4-97.4V302.7c0-38.6-31.7-69.8-69.8-69.8
	c-25.3,0-46.9,12.9-59.3,33.1c4.6-44.1,41.4-79,86.4-79c48.7,0,87.8,40,87.8,87.8v248.1c0,79-64.8,142.9-142.9,142.9
	C76,665.3,12.2,601.4,12.2,522.8 M154.6,674.9h27.6c99.7,0,180.1-80.4,180.1-180.1V274.2c0-84.1-68-152.1-152.6-152.1h-27.6
	c-99.3,0-179.7,80.4-179.7,180.1v220.6C2.5,606.9,70.5,674.9,154.6,674.9"/>
</svg>
