<?xml version="1.0" encoding="utf-8"?>
<!-- Generator: Adobe Illustrator 18.1.0, SVG Export Plug-In . SVG Version: 6.00 Build 0)  -->
<svg version="1.1" id="Layer_1" xmlns="http://www.w3.org/2000/svg" xmlns:xlink="http://www.w3.org/1999/xlink" x="0px" y="0px"
	 viewBox="3.7 108.8 794.9 552.3" enable-background="new 3.7 108.8 794.9 552.3" xml:space="preserve">
<path fill="#009BD6" d="M623.1,366.6v55.6h-27.6L623.1,366.6z M740.3,431.9h41.8l-46,46h-41.4L740.3,431.9z M514.6,477.8l74-46h34.5
	v46H514.6z M678.7,255.4v232.1h54.7V533h-54.7v107.5h-46V533H441.1v-50.5l150.3-300.1l74-45.5L489.8,487.5h142.9V347.8L678.7,255.4z
	 M798.6,484.7v-62.5H743V119.9h-67.1L584,175.5L431.5,480.6v61.6h191.2v107.5h62.5l57.4-57.4v-52.8L798.6,484.7z M183.3,540.8
	c-33.1,0-59.7-26.7-59.7-59.7V286.7c0-30.3,27.6-57.4,59.7-57.4c33.1,0,60.2,27.6,60.2,60.2v194.8
	C241.7,515.5,215.5,540.8,183.3,540.8 M13.3,508.6V288.5c0-82.3,58.4-150.7,136.5-166.8c-54.2,23.4-91.4,77.2-91.4,139.2v247.7
	c0,53.3,44.1,97.4,97.4,97.4s97.4-43.7,97.4-97.4V289.4c0-38.6-31.7-69.8-69.8-69.8c-25.3,0-46.9,12.9-58.8,33.1
	c4.6-44.1,41.4-79,86.4-79c48.7-0.5,87.8,39.5,87.8,87.3v247.7c0,79-64.3,142.9-142.9,142.9C76.7,651.5,13.3,587.6,13.3,508.6
	 M155.8,661.2h27.6c99.3,0,179.7-80.4,179.7-179.7V260.9c0-84.1-68-152.1-152.1-152.1h-27.6c-99.7,0-179.7,80.4-179.7,179.7v220.1
	C3.7,593.2,71.7,661.2,155.8,661.2"/>
</svg>
