<?xml version="1.0" encoding="utf-8"?>
<!-- Generator: Adobe Illustrator 18.1.0, SVG Export Plug-In . SVG Version: 6.00 Build 0)  -->
<svg version="1.1" id="Layer_1" xmlns="http://www.w3.org/2000/svg" xmlns:xlink="http://www.w3.org/1999/xlink" x="0px" y="0px"
	 viewBox="0 0 800 800" enable-background="new 0 0 800 800" xml:space="preserve">
<path fill="#009BD6" d="M400-1C178.7-1,0,177.7,0,399s178.7,400,400,400s400-178.7,400-400S621.3-1,400-1z M541.3,223h-2.7h-45.3
	c-26.7,0-37.3,5.3-45.3,13.3c-8,10.7-5.3,26.7-5.3,26.7v64H536l-13.3,93.3h-80v240H344v-240h-82.7V327H344v-85.3
	c0-53.3,40-93.3,85.3-104c45.3-10.7,112,0,112,0V223z"/>
</svg>
