<?xml version="1.0" encoding="utf-8"?>
<!-- Generator: Adobe Illustrator 18.1.0, SVG Export Plug-In . SVG Version: 6.00 Build 0)  -->
<svg version="1.1" id="Layer_1" xmlns="http://www.w3.org/2000/svg" xmlns:xlink="http://www.w3.org/1999/xlink" x="0px" y="0px"
	 viewBox="0 0 219.6 64" enable-background="new 0 0 219.6 64" xml:space="preserve">
<g>
	<g>
		<defs>
			<rect id="SVGID_1_" y="0" width="219.6" height="64"/>
		</defs>
		<clipPath id="SVGID_2_">
			<use xlink:href="#SVGID_1_"  overflow="visible"/>
		</clipPath>
		<path clip-path="url(#SVGID_2_)" fill="#B2B2B2" d="M29,31.5v-5.5H14.2l-5.5,5.5H29z M6.6,32.6V2L1.2,7.5v55.4h5.5V38.1h23.5v24.8
			h5.5V2l-5.5,5.5c0,8.3-0.2,17-0.2,25.2H6.6z M14.5,39.2V57l-7,7H0V7l7-7h7.5v24.8H29V7l7-7h7.5v57l-7,7H29V39.2H14.5z"/>
	</g>
	<path fill="#B2B2B2" d="M69.4,7.5L74.8,2v60.9h-5.5V7.5z M75.2,0l-7,7v57h7.5l7-7V0H75.2z"/>
	<path fill="#B2B2B2" d="M108.7,7.5l5.5-5.5v60.9h-5.5V7.5z M137.7,7.5l5.5-5.5v60.9h-7L122,30.6V17.1l15.6,35.4V7.5z M143.5,0l-7,7
		v23.6L123,0h-8.5l-7,7v57h7.5l7-7V33.4L135.4,64h8.5l7-7V0H143.5z"/>
	<path fill="#B2B2B2" d="M198,38.2l3.1-5.5l13.6,24.2l-3.1,5.5L198,38.2z M183.6,36.6l16.5-29l9.4-5.5L189.1,38v18.5l-5.5,5.5V36.6z
		 M176.9,7.5l5.5-5.5v60.9h-5.5V7.5z M210.9,0l-11.8,6.8l-8.9,15.6V0h-7.5l-7,7v57h7.5l7-7V40.4L203.6,64h8.4l4.1-7.2l-14.2-25.3
		L219.6,0H210.9z"/>
</g>
</svg>
