<?xml version="1.0" encoding="utf-8"?>
<!-- Generator: Adobe Illustrator 18.1.0, SVG Export Plug-In . SVG Version: 6.00 Build 0)  -->
<svg version="1.1" id="Layer_1" xmlns="http://www.w3.org/2000/svg" xmlns:xlink="http://www.w3.org/1999/xlink" x="0px" y="0px"
	 viewBox="-1 -1 800 800" enable-background="new -1 -1 800 800" xml:space="preserve">
<path fill="#009BD6" d="M399-1C177.7-1-1,177.7-1,399s178.7,400,400,400s400-178.7,400-400S620.3-1,399-1z M287,559h-85.3V284.3H287
	V559z M244.3,247c-26.7,0-48-21.3-48-48s21.3-48,48-48s48,21.3,48,48S271,247,244.3,247z M599,559h-80V425.7c0-32,0-72-45.3-72
	S423,388.3,423,423v136h-85.3V284.3h80v37.3c10.7-21.3,40-42.7,80-42.7C583,279,599,335,599,409.7V559z"/>
</svg>
