<?xml version="1.0" encoding="utf-8"?>
<!-- Generator: Adobe Illustrator 18.1.0, SVG Export Plug-In . SVG Version: 6.00 Build 0)  -->
<svg version="1.1" id="Layer_1" xmlns="http://www.w3.org/2000/svg" xmlns:xlink="http://www.w3.org/1999/xlink" x="0px" y="0px"
	 viewBox="0 0 211.1 46.9" enable-background="new 0 0 211.1 46.9" xml:space="preserve">
<g>
	<path fill="#FFFFFF" d="M14,10.4l4-4.1v39.8h-4V10.4z M5.5,5.7h11.9l-4,4.1H1.5L5.5,5.7z M23.7,5.7h11.6l-4.1,4.1h-7.5V5.7z
		 M0.9,5.5l4-4v3.6l-4,4.1V5.5z M5.1,0L0,5.1v5.5h13.1v36.3h5.5l5.1-5.1V10.6h7.9l5.2-5.2V0H5.1z"/>
	<g>
		<defs>
			<rect id="SVGID_1_" y="0" width="211.1" height="46.9"/>
		</defs>
		<clipPath id="SVGID_2_">
			<use xlink:href="#SVGID_1_"  overflow="visible"/>
		</clipPath>
		<path clip-path="url(#SVGID_2_)" fill="#FFFFFF" d="M71.4,23.1V19H60.5l-4.1,4.1H71.4z M55,23.9V1.5l-4,4v40.6h4V27.9h17.2v18.2h4
			V1.5l-4,4c0,6.1-0.1,12.4-0.1,18.5H55z M60.7,28.8v13.1l-5.2,5.1h-5.5V5.1L55.2,0h5.5v18.2h10.6V5.1L76.5,0h5.5v41.8l-5.1,5.1
			h-5.5V28.8H60.7z"/>
	</g>
	<path fill="#FFFFFF" d="M101,5.5l4-4v44.6h-4V5.5z M105.2,0l-5.1,5.1v41.8h5.5l5.2-5.1V0H105.2z"/>
	<path fill="#FFFFFF" d="M129.8,5.5l4-4v44.6h-4V5.5z M151.1,5.5l4-4v44.6H150l-10.4-23.6v-10l11.5,25.9V5.5z M155.3,0l-5.1,5.1
		v17.3L140.3,0h-6.3L129,5.1v41.8h5.5l5.2-5.1V24.5l9.8,22.4h6.3l5.1-5.1V0H155.3z"/>
	<path fill="#FFFFFF" d="M195.3,28l2.3-4.1l10,17.7l-2.2,4L195.3,28z M184.7,26.8l12.1-21.3l6.9-4.1l-14.9,26.4v13.6l-4.1,4V26.8z
		 M179.9,5.5l4-4v44.6h-4V5.5z M204.8,0l-8.6,5l-6.5,11.5V0h-5.5L179,5.1v41.8h5.5l5.2-5.1V29.6l9.8,17.3h6.1l3-5.3l-10.4-18.6
		L211.1,0H204.8z"/>
</g>
</svg>
