<?xml version="1.0" encoding="utf-8"?>
<!-- Generator: Adobe Illustrator 18.1.0, SVG Export Plug-In . SVG Version: 6.00 Build 0)  -->
<svg version="1.1" id="Layer_1" xmlns="http://www.w3.org/2000/svg" xmlns:xlink="http://www.w3.org/1999/xlink" x="0px" y="0px"
	 viewBox="0 -14 800 800" enable-background="new 0 -14 800 800" xml:space="preserve">
<path fill="#009BD6" d="M592,247.3c13.3,2.7,45.3-8,58.7-13.3c-8,10.7-26.7,32-50.7,48c0,18.7,5.3,213.3-194.7,288
	c-149.3,56-258.7-26.7-258.7-26.7s88,8,149.3-42.7c-18.7,0-80-13.3-96-69.3c8,2.7,29.3,5.3,45.3,0c-13.3-5.3-82.7-29.3-82.7-104
	c10.7,5.3,18.7,10.7,48,13.3c-16-13.3-69.3-61.3-32-136c0,0,72,96,216,104c-2.7-16-8-90.7,69.3-120c64-24,106.7,26.7,106.7,26.7
	s29.3,0,69.3-24C640,210,597.3,244.7,592,247.3 M800,386c0-221.3-178.7-400-400-400S0,164.7,0,386s178.7,400,400,400
	S800,607.3,800,386"/>
</svg>
