<?xml version="1.0" encoding="utf-8"?>
<!-- Generator: Adobe Illustrator 18.1.1, SVG Export Plug-In . SVG Version: 6.00 Build 0)  -->
<svg version="1.1" id="Layer_1" xmlns="http://www.w3.org/2000/svg" xmlns:xlink="http://www.w3.org/1999/xlink" x="0px" y="0px"
	 viewBox="0 0 30 30" enable-background="new 0 0 30 30" xml:space="preserve">
<g>
	<defs>
		<rect id="SVGID_1_" width="30" height="30"/>
	</defs>
	<clipPath id="SVGID_2_">
		<use xlink:href="#SVGID_1_"  overflow="visible"/>
	</clipPath>
	<path clip-path="url(#SVGID_2_)" fill="#009BD6" d="M15.2,10.8V8.6c0-0.5-0.1-0.7-0.5-0.7c-0.3,0-0.5,0.2-0.5,0.7v2.2
		c0,0.5,0.1,0.7,0.5,0.7C15.1,11.6,15.2,11.3,15.2,10.8 M10.5,16.2h1.1v-1H8.3v1h1.1v6.1h1.1V16.2z M13.5,22.2h1V17h-1v4
		c-0.2,0.3-0.4,0.4-0.6,0.4c-0.1,0-0.2-0.1-0.2-0.2c0,0,0-0.1,0-0.4V17h-1v4.2c0,0.4,0,0.6,0.1,0.8c0.1,0.3,0.3,0.4,0.6,0.4
		c0.4,0,0.7-0.2,1.1-0.6V22.2z M17.2,20.7c0,0.5-0.1,0.7-0.4,0.7c-0.2,0-0.3-0.1-0.5-0.2V18c0.2-0.2,0.3-0.2,0.5-0.2
		c0.3,0,0.4,0.2,0.4,0.7V20.7z M18,21.7c0.1-0.2,0.1-0.6,0.1-1.1v-2.1c0-0.5,0-0.8-0.1-1.1c-0.1-0.4-0.4-0.6-0.8-0.6
		c-0.3,0-0.7,0.2-1,0.6v-2.3h-1v7.1h1v-0.5c0.3,0.4,0.6,0.6,1,0.6C17.6,22.3,17.9,22.1,18,21.7 M19.8,19v-0.5c0-0.5,0.2-0.7,0.5-0.7
		c0.3,0,0.5,0.2,0.5,0.7V19H19.8z M21.7,21.2c0-0.1,0-0.3,0-0.6v-0.1h-1c0,0.4,0,0.6,0,0.6c-0.1,0.3-0.2,0.4-0.4,0.4
		c-0.3,0-0.5-0.2-0.5-0.7v-0.9h1.9v-1.1c0-0.6-0.1-1-0.3-1.2c-0.3-0.4-0.6-0.5-1.1-0.5c-0.5,0-0.9,0.2-1.1,0.5
		c-0.2,0.3-0.3,0.7-0.3,1.2v1.8c0,0.6,0.1,1,0.3,1.2c0.3,0.4,0.7,0.5,1.2,0.5c0.5,0,0.9-0.2,1.2-0.6C21.6,21.6,21.7,21.4,21.7,21.2
		 M22.9,18.8c0,1.2,0,2.5-0.3,3.7c-0.2,0.8-0.9,1.5-1.7,1.6c-2,0.2-3.9,0.2-5.9,0.2c-2,0-4,0-5.9-0.2c-0.8-0.1-1.5-0.7-1.7-1.6
		c-0.3-1.2-0.3-2.5-0.3-3.7c0-1.2,0-2.5,0.3-3.7c0.2-0.8,0.9-1.5,1.7-1.5c2-0.2,3.9-0.2,5.9-0.2c2,0,4,0,5.9,0.2
		c0.8,0.1,1.5,0.7,1.7,1.5C22.9,16.3,22.9,17.6,22.9,18.8 M19.8,12.4h-1v-0.6c-0.4,0.4-0.7,0.7-1.1,0.7c-0.3,0-0.5-0.1-0.6-0.4
		C17,11.9,17,11.6,17,11.2V7h1V11c0,0.2,0,0.3,0,0.4c0,0.1,0.1,0.2,0.2,0.2c0.2,0,0.4-0.1,0.6-0.5V7h1V12.4z M16.2,10.6
		c0,0.6-0.1,1-0.3,1.3c-0.3,0.4-0.6,0.5-1.1,0.5c-0.5,0-0.9-0.2-1.1-0.5c-0.2-0.3-0.3-0.7-0.3-1.3V8.8c0-0.6,0.1-1,0.3-1.3
		C13.9,7.2,14.3,7,14.8,7c0.5,0,0.9,0.2,1.1,0.5c0.2,0.3,0.3,0.7,0.3,1.3V10.6z M13.3,5.2l-1.3,4.2v2.9H11V9.5
		c-0.1-0.5-0.3-1.3-0.7-2.3c-0.2-0.7-0.5-1.3-0.7-2h1.1L11.5,8l0.7-2.8H13.3z M30,15c0-8.3-6.7-15-15-15C6.7,0,0,6.7,0,15
		s6.7,15,15,15C23.3,30,30,23.3,30,15"/>
</g>
</svg>
